<svg id="Layer_2" data-name="Layer 2" xmlns="http://www.w3.org/2000/svg" viewBox="0 0 134 167"><defs><style>.cls-1{fill:none;stroke:#fff;}.cls-1,.cls-2{stroke-miterlimit:10;stroke-width:7.09px;}.cls-2{fill:#fff;stroke:#ffc77e;}.cls-3{fill:#78dbdb;}.cls-4{fill:#f78296;}.cls-5{fill:#8adc7d;}</style></defs><title>IDSLogo</title><path class="cls-1" d="M122.73,66.79c0,31.6-57.23,88.5-57.23,88.5S8.28,98.39,8.28,66.79a57.23,57.23,0,0,1,114.45,0Z"/><path class="cls-2" d="M120,67.53c0,30.1-54.5,84.29-54.5,84.29S11,97.63,11,67.53a54.5,54.5,0,0,1,109,0Z"/><path class="cls-3" d="M106.32,56.33V66a22.77,22.77,0,0,0-12-3.47c-3.55,0-5.53,1.21-5.53,3.12,0,2.13,2.27,3,6.73,4.18,6.45,1.56,13.32,3.76,13.32,12,0,7.72-6.09,12.68-16.72,12.68a25.91,25.91,0,0,1-14-3.68V80.42a21.13,21.13,0,0,0,13.53,4.89c4,0,6.24-1.28,6.24-3.4,0-2.41-2.84-3.19-7.94-4.61-6.23-1.77-12-4.32-12-11.48s5.88-12.54,16-12.54C98.53,53.28,103.27,54.41,106.32,56.33Z"/><path class="cls-4" d="M37.47,73.35c0-12.54,8.36-20.62,17.51-20.61a14,14,0,0,1,12.18,6.73V36.08H78.5V93H68.93L67.8,87a14.75,14.75,0,0,1-12.68,7C46,94,37.47,85.9,37.47,73.35Zm29.84,0c0-6.1-3.9-10.42-9.15-10.42s-9.28,4.46-9.28,10.42,4,10.41,9.28,10.41S67.3,79.45,67.31,73.36Z"/><path class="cls-5" d="M25.8,42.72A6.2,6.2,0,1,1,32,48.89,6.08,6.08,0,0,1,25.8,42.72Zm.57,11.55H37.7V93.53H26.37Z"/></svg>