<svg xmlns="http://www.w3.org/2000/svg" viewBox="0 0 558 288"><defs><style>.cls-1{fill:#f78296;}</style></defs><title>PinkLeafsvg</title><g id="Layer_4" data-name="Layer 4"><path class="cls-1" d="M34.83,113.45c26.61-17.34,87.86-40.88,118.81-49.78,20-5.74,82.08-13.5,82.08-13.5s24.06,2.26,32,1.19c7.28-1,20.75-7.92,28-8.82,13.73-1.71,41.47,3.27,55,6.33C368.59,52.93,405,59.68,421.62,67.3c13.93,6.38,40.08,23.36,50.79,34.31,9.76,10,34.72,47.21,34.72,47.21s-28.61-.56-64.71-1.5c-.68,0,.79-21.17-5.94-37.85-7.18-17.82-21.58-31.24-22.32-31.26-.56,0,13.13,16.22,18.81,33.45s6.37,35.47,5.8,35.46c-22.33-.59-50.25-1.32-73.62-2.13-.6,0-2.56-42.95-13.08-70.11-7-18.08-21.95-24.18-22.35-24.2s16.4,13.2,22.34,30.51c9.4,27.37,9.69,63.62,9.08,63.59-20.31-.72-45.35-2.56-60.46-3.4-1.22-.06.11-25.59-6.33-47-5.79-19.22-18.41-34.51-19.68-34.58-.47,0,11.73,19,17.14,38.72,5.83,21.24,4.9,43.27,4.37,43.24-14-.9-32.16-2.25-52-3.84-.66,0-1.69-22.72-8.87-40.74-7.43-18.66-21-32.69-21.7-32.74-.5,0,14.63,19.26,20.76,37.51s6.28,35.47,5.78,35.43c-16.06-1.3-34.05-2.74-51.45-4.2-.58-.05-2.32-15.6-10.06-30.19s-21.49-28.23-22.06-28.28S171,92.22,178.1,108c5.87,13,8.16,24.71,7.64,24.67-9.23-.79-22.18-1.6-30.47-2.37-41-3.8-73.27-7.64-73.5-6.55s29.77,5.39,62.45,9.32c.7.09-10.44,14.3-19,24-9.52,10.79-19.58,17.17-18.8,17.27s12-7.94,22.48-18S147,134,147.67,134c18.28,2.17,40.38,4.47,59.54,6.61.56.06-10.37,20.78-23.59,37.85-13.83,17.87-33,32.11-32.38,32.18s18.36-11.57,34-29.95c13.77-16.15,23.79-39.35,24.41-39.28,22.69,2.5,64.22,6.48,65.49,6.6.54.05-11.52,34.72-26.63,58.05A113,113,0,0,1,218.6,237c.52,0,16.7-5.9,32-27.93,15.45-22.2,27-60.51,27.52-60.47,10,.88,26.49,1.84,42,2.81.58,0-4,21.21-14.75,42.5-10.87,21.64-27.83,43.41-27.23,43.44.32,0,17.52-20.4,29-41.32,12-21.88,15.21-44.32,15.55-44.3,18.54,1.13,41.7,2.3,62.93,3.38.58,0-5.12,26.56-15.84,46.17-10.84,19.81-28.7,32.7-28.11,32.73.77,0,17.64-10,30.15-30.26,11.68-18.94,16.06-48.3,16.78-48.26,58.76,3,118.48,5.38,118.48,5.38s-30.37,30-42.23,37.75c-25.84,16.88-65.21,34.6-115.27,44.3-7.85,1.52-32-.2-32-.2s-72.25,6.86-96,3.42c-32.47-4.7-78.34-26-102.74-43.63C98.74,188,50.23,131,50.23,131S29.94,116.64,34.83,113.45Z"/></g></svg>